<mxfile host="app.diagrams.net" modified="2023-07-15T02:00:38.611Z" agent="Mozilla/5.0 (Macintosh; Intel Mac OS X 10_15_7) AppleWebKit/537.36 (KHTML, like Gecko) Chrome/114.0.0.0 Safari/537.36" etag="5c2ofeSQSNx5vkZ4xpxd" version="21.6.2" type="github">
  <diagram name="第 1 页" id="V9RR9HZRRGcWbTIDjm5j">
    <mxGraphModel dx="954" dy="615" grid="1" gridSize="10" guides="1" tooltips="1" connect="1" arrows="1" fold="1" page="1" pageScale="1" pageWidth="827" pageHeight="1169" math="0" shadow="0">
      <root>
        <mxCell id="0" />
        <mxCell id="1" parent="0" />
        <mxCell id="cus_bGk6iszRSvrOZf_j-224" value="" style="rounded=0;whiteSpace=wrap;html=1;strokeWidth=0;fillColor=#f5f5f5;fontColor=#333333;strokeColor=#666666;" vertex="1" parent="1">
          <mxGeometry x="247" y="2168" width="283" height="290" as="geometry" />
        </mxCell>
        <mxCell id="cus_bGk6iszRSvrOZf_j-151" value="" style="rounded=0;whiteSpace=wrap;html=1;fillColor=#fff2cc;strokeColor=#d6b656;" vertex="1" parent="1">
          <mxGeometry x="360" y="860" width="530" height="80" as="geometry" />
        </mxCell>
        <mxCell id="cus_bGk6iszRSvrOZf_j-143" value="" style="rounded=0;whiteSpace=wrap;html=1;fillColor=#f5f5f5;strokeColor=#666666;fontColor=#333333;" vertex="1" parent="1">
          <mxGeometry x="360" y="750" width="530" height="110" as="geometry" />
        </mxCell>
        <mxCell id="cus_bGk6iszRSvrOZf_j-70" value="" style="rounded=0;whiteSpace=wrap;html=1;" vertex="1" parent="1">
          <mxGeometry x="120" y="215" width="750" height="320" as="geometry" />
        </mxCell>
        <mxCell id="cus_bGk6iszRSvrOZf_j-106" value="" style="endArrow=none;dashed=1;html=1;dashPattern=1 3;strokeWidth=2;rounded=0;" edge="1" parent="1">
          <mxGeometry width="50" height="50" relative="1" as="geometry">
            <mxPoint x="630" y="530" as="sourcePoint" />
            <mxPoint x="630" y="220" as="targetPoint" />
          </mxGeometry>
        </mxCell>
        <mxCell id="cus_bGk6iszRSvrOZf_j-92" style="edgeStyle=orthogonalEdgeStyle;rounded=0;orthogonalLoop=1;jettySize=auto;html=1;exitX=1;exitY=0.5;exitDx=0;exitDy=0;entryX=0;entryY=0.5;entryDx=0;entryDy=0;fillColor=#fff2cc;strokeColor=#d6b656;" edge="1" parent="1" source="cus_bGk6iszRSvrOZf_j-1" target="cus_bGk6iszRSvrOZf_j-20">
          <mxGeometry relative="1" as="geometry" />
        </mxCell>
        <mxCell id="cus_bGk6iszRSvrOZf_j-99" style="rounded=0;orthogonalLoop=1;jettySize=auto;html=1;exitX=1;exitY=0.75;exitDx=0;exitDy=0;entryX=0;entryY=0.5;entryDx=0;entryDy=0;fillColor=#fff2cc;strokeColor=#d6b656;edgeStyle=orthogonalEdgeStyle;curved=1;" edge="1" parent="1" source="cus_bGk6iszRSvrOZf_j-20" target="cus_bGk6iszRSvrOZf_j-54">
          <mxGeometry relative="1" as="geometry" />
        </mxCell>
        <mxCell id="cus_bGk6iszRSvrOZf_j-1" value="EP Informer" style="rounded=1;whiteSpace=wrap;html=1;fillColor=#fff2cc;strokeColor=#d6b656;" vertex="1" parent="1">
          <mxGeometry x="157" y="360" width="100" height="30" as="geometry" />
        </mxCell>
        <mxCell id="cus_bGk6iszRSvrOZf_j-12" style="edgeStyle=orthogonalEdgeStyle;rounded=0;orthogonalLoop=1;jettySize=auto;html=1;exitX=1;exitY=0.5;exitDx=0;exitDy=0;entryX=0;entryY=0.5;entryDx=0;entryDy=0;fillColor=#dae8fc;strokeColor=#6c8ebf;" edge="1" parent="1" source="cus_bGk6iszRSvrOZf_j-2" target="cus_bGk6iszRSvrOZf_j-6">
          <mxGeometry relative="1" as="geometry" />
        </mxCell>
        <mxCell id="cus_bGk6iszRSvrOZf_j-90" style="edgeStyle=orthogonalEdgeStyle;rounded=0;orthogonalLoop=1;jettySize=auto;html=1;exitX=0.5;exitY=0;exitDx=0;exitDy=0;entryX=0.5;entryY=0;entryDx=0;entryDy=0;fillColor=#dae8fc;strokeColor=#6c8ebf;" edge="1" parent="1" source="cus_bGk6iszRSvrOZf_j-2" target="cus_bGk6iszRSvrOZf_j-3">
          <mxGeometry relative="1" as="geometry" />
        </mxCell>
        <mxCell id="cus_bGk6iszRSvrOZf_j-2" value="POD Informer" style="rounded=1;whiteSpace=wrap;html=1;fillColor=#dae8fc;strokeColor=#6c8ebf;" vertex="1" parent="1">
          <mxGeometry x="157" y="278" width="100" height="30" as="geometry" />
        </mxCell>
        <mxCell id="cus_bGk6iszRSvrOZf_j-88" style="edgeStyle=orthogonalEdgeStyle;rounded=0;orthogonalLoop=1;jettySize=auto;html=1;exitX=0.5;exitY=1;exitDx=0;exitDy=0;entryX=0;entryY=0.25;entryDx=0;entryDy=0;fillColor=#dae8fc;strokeColor=#6c8ebf;" edge="1" parent="1" source="cus_bGk6iszRSvrOZf_j-6" target="cus_bGk6iszRSvrOZf_j-1">
          <mxGeometry relative="1" as="geometry" />
        </mxCell>
        <mxCell id="cus_bGk6iszRSvrOZf_j-6" value="当前 pod 是否在同步队列中" style="shape=process;whiteSpace=wrap;html=1;backgroundOutline=1;fillColor=#dae8fc;strokeColor=#6c8ebf;" vertex="1" parent="1">
          <mxGeometry x="278" y="273" width="120" height="40" as="geometry" />
        </mxCell>
        <mxCell id="cus_bGk6iszRSvrOZf_j-94" style="edgeStyle=orthogonalEdgeStyle;rounded=0;orthogonalLoop=1;jettySize=auto;html=1;exitX=0.75;exitY=0;exitDx=0;exitDy=0;entryX=0.442;entryY=0.933;entryDx=0;entryDy=0;entryPerimeter=0;fillColor=#fff2cc;strokeColor=#d6b656;" edge="1" parent="1" source="cus_bGk6iszRSvrOZf_j-20" target="cus_bGk6iszRSvrOZf_j-11">
          <mxGeometry relative="1" as="geometry" />
        </mxCell>
        <mxCell id="cus_bGk6iszRSvrOZf_j-96" style="rounded=0;orthogonalLoop=1;jettySize=auto;html=1;exitX=1;exitY=0.5;exitDx=0;exitDy=0;entryX=0;entryY=0.5;entryDx=0;entryDy=0;fillColor=#fff2cc;strokeColor=#d6b656;" edge="1" parent="1" source="cus_bGk6iszRSvrOZf_j-20" target="cus_bGk6iszRSvrOZf_j-32">
          <mxGeometry relative="1" as="geometry" />
        </mxCell>
        <mxCell id="cus_bGk6iszRSvrOZf_j-120" value="eds" style="edgeLabel;html=1;align=center;verticalAlign=middle;resizable=0;points=[];" vertex="1" connectable="0" parent="cus_bGk6iszRSvrOZf_j-96">
          <mxGeometry x="-0.0265" relative="1" as="geometry">
            <mxPoint as="offset" />
          </mxGeometry>
        </mxCell>
        <mxCell id="cus_bGk6iszRSvrOZf_j-20" value="EP 是否在 PC 中" style="shape=process;whiteSpace=wrap;html=1;backgroundOutline=1;fillColor=#fff2cc;strokeColor=#d6b656;" vertex="1" parent="1">
          <mxGeometry x="350" y="360" width="120" height="30" as="geometry" />
        </mxCell>
        <mxCell id="cus_bGk6iszRSvrOZf_j-35" value="" style="rounded=1;whiteSpace=wrap;html=1;fillColor=#f5f5f5;fontColor=#333333;strokeColor=#666666;" vertex="1" parent="1">
          <mxGeometry x="690" y="267" width="150" height="233" as="geometry" />
        </mxCell>
        <mxCell id="cus_bGk6iszRSvrOZf_j-41" value="" style="rounded=1;whiteSpace=wrap;html=1;" vertex="1" parent="1">
          <mxGeometry x="703" y="281" width="187" height="38" as="geometry" />
        </mxCell>
        <mxCell id="cus_bGk6iszRSvrOZf_j-43" value="" style="rounded=1;whiteSpace=wrap;html=1;" vertex="1" parent="1">
          <mxGeometry x="703" y="334" width="187" height="40" as="geometry" />
        </mxCell>
        <mxCell id="cus_bGk6iszRSvrOZf_j-45" value="" style="rounded=1;whiteSpace=wrap;html=1;" vertex="1" parent="1">
          <mxGeometry x="703" y="384" width="187" height="35" as="geometry" />
        </mxCell>
        <mxCell id="cus_bGk6iszRSvrOZf_j-46" value="XDS&lt;br&gt;Generater" style="rounded=1;whiteSpace=wrap;html=1;" vertex="1" parent="1">
          <mxGeometry x="758" y="274" width="70" height="220" as="geometry" />
        </mxCell>
        <mxCell id="cus_bGk6iszRSvrOZf_j-47" value="eds" style="rounded=0;whiteSpace=wrap;html=1;" vertex="1" parent="1">
          <mxGeometry x="833" y="290" width="30" height="20" as="geometry" />
        </mxCell>
        <mxCell id="cus_bGk6iszRSvrOZf_j-48" value="ads" style="rounded=0;whiteSpace=wrap;html=1;" vertex="1" parent="1">
          <mxGeometry x="833" y="344" width="30" height="20" as="geometry" />
        </mxCell>
        <mxCell id="cus_bGk6iszRSvrOZf_j-50" value="rds" style="rounded=0;whiteSpace=wrap;html=1;" vertex="1" parent="1">
          <mxGeometry x="833" y="391.5" width="30" height="20" as="geometry" />
        </mxCell>
        <mxCell id="cus_bGk6iszRSvrOZf_j-51" value="Conn" style="text;html=1;strokeColor=none;fillColor=none;align=center;verticalAlign=middle;whiteSpace=wrap;rounded=0;" vertex="1" parent="1">
          <mxGeometry x="703" y="285" width="60" height="30" as="geometry" />
        </mxCell>
        <mxCell id="cus_bGk6iszRSvrOZf_j-52" value="Conn" style="text;html=1;strokeColor=none;fillColor=none;align=center;verticalAlign=middle;whiteSpace=wrap;rounded=0;" vertex="1" parent="1">
          <mxGeometry x="703" y="344" width="60" height="30" as="geometry" />
        </mxCell>
        <mxCell id="cus_bGk6iszRSvrOZf_j-53" value="Conn" style="text;html=1;strokeColor=none;fillColor=none;align=center;verticalAlign=middle;whiteSpace=wrap;rounded=0;" vertex="1" parent="1">
          <mxGeometry x="703" y="389" width="60" height="30" as="geometry" />
        </mxCell>
        <mxCell id="cus_bGk6iszRSvrOZf_j-54" value="Istio EP" style="ellipse;whiteSpace=wrap;html=1;fillColor=#fff2cc;strokeColor=#d6b656;" vertex="1" parent="1">
          <mxGeometry x="566.5" y="397.5" width="80" height="40" as="geometry" />
        </mxCell>
        <mxCell id="cus_bGk6iszRSvrOZf_j-80" style="rounded=0;orthogonalLoop=1;jettySize=auto;html=1;exitX=1;exitY=0.5;exitDx=0;exitDy=0;entryX=0;entryY=0.5;entryDx=0;entryDy=0;fillColor=#ffe6cc;strokeColor=#d79b00;" edge="1" parent="1" source="cus_bGk6iszRSvrOZf_j-61" target="cus_bGk6iszRSvrOZf_j-62">
          <mxGeometry relative="1" as="geometry" />
        </mxCell>
        <mxCell id="cus_bGk6iszRSvrOZf_j-119" style="rounded=0;orthogonalLoop=1;jettySize=auto;html=1;exitX=1;exitY=0.5;exitDx=0;exitDy=0;entryX=0;entryY=1;entryDx=0;entryDy=0;fillColor=#ffe6cc;strokeColor=#d79b00;" edge="1" parent="1" source="cus_bGk6iszRSvrOZf_j-61" target="cus_bGk6iszRSvrOZf_j-32">
          <mxGeometry relative="1" as="geometry" />
        </mxCell>
        <mxCell id="cus_bGk6iszRSvrOZf_j-121" value="rds" style="edgeLabel;html=1;align=center;verticalAlign=middle;resizable=0;points=[];" vertex="1" connectable="0" parent="cus_bGk6iszRSvrOZf_j-119">
          <mxGeometry x="0.0015" relative="1" as="geometry">
            <mxPoint as="offset" />
          </mxGeometry>
        </mxCell>
        <mxCell id="cus_bGk6iszRSvrOZf_j-61" value="ConfigController" style="rounded=1;whiteSpace=wrap;html=1;fillColor=#ffe6cc;strokeColor=#d79b00;" vertex="1" parent="1">
          <mxGeometry x="157" y="465" width="100" height="30" as="geometry" />
        </mxCell>
        <mxCell id="cus_bGk6iszRSvrOZf_j-62" value="ConfigStore" style="ellipse;whiteSpace=wrap;html=1;fillColor=#ffe6cc;strokeColor=#d79b00;" vertex="1" parent="1">
          <mxGeometry x="566.5" y="460" width="80" height="40" as="geometry" />
        </mxCell>
        <mxCell id="cus_bGk6iszRSvrOZf_j-3" value="POD Cache" style="ellipse;whiteSpace=wrap;html=1;fillColor=#dae8fc;strokeColor=#6c8ebf;" vertex="1" parent="1">
          <mxGeometry x="570" y="273" width="71" height="40" as="geometry" />
        </mxCell>
        <mxCell id="cus_bGk6iszRSvrOZf_j-32" value="Push Queue" style="rounded=1;whiteSpace=wrap;html=1;fillColor=#fff2cc;strokeColor=#d6b656;" vertex="1" parent="1">
          <mxGeometry x="564.5" y="360" width="82" height="30" as="geometry" />
        </mxCell>
        <mxCell id="cus_bGk6iszRSvrOZf_j-93" style="edgeStyle=orthogonalEdgeStyle;rounded=0;orthogonalLoop=1;jettySize=auto;html=1;exitX=0;exitY=0.5;exitDx=0;exitDy=0;entryX=1;entryY=0.5;entryDx=0;entryDy=0;fillColor=#dae8fc;strokeColor=#6c8ebf;" edge="1" parent="1" source="cus_bGk6iszRSvrOZf_j-11" target="cus_bGk6iszRSvrOZf_j-6">
          <mxGeometry relative="1" as="geometry" />
        </mxCell>
        <mxCell id="cus_bGk6iszRSvrOZf_j-11" value="sync queue" style="rounded=1;whiteSpace=wrap;html=1;fillColor=#dae8fc;strokeColor=#6c8ebf;" vertex="1" parent="1">
          <mxGeometry x="430" y="278" width="120" height="30" as="geometry" />
        </mxCell>
        <mxCell id="cus_bGk6iszRSvrOZf_j-101" value="" style="shape=flexArrow;endArrow=classic;html=1;rounded=0;width=10;endSize=5.67;" edge="1" parent="1">
          <mxGeometry width="50" height="50" relative="1" as="geometry">
            <mxPoint x="653" y="375.5" as="sourcePoint" />
            <mxPoint x="683" y="375.5" as="targetPoint" />
          </mxGeometry>
        </mxCell>
        <mxCell id="cus_bGk6iszRSvrOZf_j-103" value="" style="endArrow=none;dashed=1;html=1;dashPattern=1 3;strokeWidth=2;rounded=0;entryX=0;entryY=0.75;entryDx=0;entryDy=0;exitX=1;exitY=0.5;exitDx=0;exitDy=0;" edge="1" parent="1" source="cus_bGk6iszRSvrOZf_j-54" target="cus_bGk6iszRSvrOZf_j-46">
          <mxGeometry width="50" height="50" relative="1" as="geometry">
            <mxPoint x="460" y="590" as="sourcePoint" />
            <mxPoint x="510" y="540" as="targetPoint" />
          </mxGeometry>
        </mxCell>
        <mxCell id="cus_bGk6iszRSvrOZf_j-104" value="" style="endArrow=none;dashed=1;html=1;dashPattern=1 3;strokeWidth=2;rounded=0;entryX=-0.043;entryY=0.9;entryDx=0;entryDy=0;entryPerimeter=0;" edge="1" parent="1" target="cus_bGk6iszRSvrOZf_j-46">
          <mxGeometry width="50" height="50" relative="1" as="geometry">
            <mxPoint x="650" y="480" as="sourcePoint" />
            <mxPoint x="768" y="449" as="targetPoint" />
          </mxGeometry>
        </mxCell>
        <mxCell id="cus_bGk6iszRSvrOZf_j-107" value="XDS Server" style="text;html=1;strokeColor=none;fillColor=none;align=center;verticalAlign=middle;whiteSpace=wrap;rounded=0;" vertex="1" parent="1">
          <mxGeometry x="720" y="500" width="90" height="30" as="geometry" />
        </mxCell>
        <mxCell id="cus_bGk6iszRSvrOZf_j-108" value="&lt;font style=&quot;font-size: 18px;&quot;&gt;&lt;b&gt;...&lt;/b&gt;&lt;/font&gt;" style="text;html=1;strokeColor=none;fillColor=none;align=center;verticalAlign=middle;whiteSpace=wrap;rounded=0;" vertex="1" parent="1">
          <mxGeometry x="845" y="281" width="60" height="30" as="geometry" />
        </mxCell>
        <mxCell id="cus_bGk6iszRSvrOZf_j-110" value="&lt;font style=&quot;font-size: 18px;&quot;&gt;&lt;b&gt;...&lt;/b&gt;&lt;/font&gt;" style="text;html=1;strokeColor=none;fillColor=none;align=center;verticalAlign=middle;whiteSpace=wrap;rounded=0;" vertex="1" parent="1">
          <mxGeometry x="847" y="336" width="60" height="30" as="geometry" />
        </mxCell>
        <mxCell id="cus_bGk6iszRSvrOZf_j-111" value="&lt;font style=&quot;font-size: 18px;&quot;&gt;&lt;b&gt;...&lt;/b&gt;&lt;/font&gt;" style="text;html=1;strokeColor=none;fillColor=none;align=center;verticalAlign=middle;whiteSpace=wrap;rounded=0;" vertex="1" parent="1">
          <mxGeometry x="845" y="383" width="60" height="30" as="geometry" />
        </mxCell>
        <mxCell id="cus_bGk6iszRSvrOZf_j-112" value="" style="shape=flexArrow;endArrow=classic;html=1;rounded=0;fillColor=#dae8fc;strokeColor=#6c8ebf;" edge="1" parent="1">
          <mxGeometry width="50" height="50" relative="1" as="geometry">
            <mxPoint x="80" y="292.5" as="sourcePoint" />
            <mxPoint x="130" y="292.5" as="targetPoint" />
          </mxGeometry>
        </mxCell>
        <mxCell id="cus_bGk6iszRSvrOZf_j-113" value="POD 事件" style="text;html=1;strokeColor=none;fillColor=none;align=center;verticalAlign=middle;whiteSpace=wrap;rounded=0;" vertex="1" parent="1">
          <mxGeometry x="50" y="260" width="60" height="30" as="geometry" />
        </mxCell>
        <mxCell id="cus_bGk6iszRSvrOZf_j-114" value="" style="shape=flexArrow;endArrow=classic;html=1;rounded=0;fillColor=#fff2cc;strokeColor=#d6b656;" edge="1" parent="1">
          <mxGeometry width="50" height="50" relative="1" as="geometry">
            <mxPoint x="80" y="374.5" as="sourcePoint" />
            <mxPoint x="130" y="374.5" as="targetPoint" />
          </mxGeometry>
        </mxCell>
        <mxCell id="cus_bGk6iszRSvrOZf_j-115" value="EP 事件" style="text;html=1;strokeColor=none;fillColor=none;align=center;verticalAlign=middle;whiteSpace=wrap;rounded=0;" vertex="1" parent="1">
          <mxGeometry x="50" y="339" width="60" height="30" as="geometry" />
        </mxCell>
        <mxCell id="cus_bGk6iszRSvrOZf_j-116" value="" style="shape=flexArrow;endArrow=classic;html=1;rounded=0;fillColor=#ffe6cc;strokeColor=#d79b00;" edge="1" parent="1">
          <mxGeometry width="50" height="50" relative="1" as="geometry">
            <mxPoint x="81" y="477.5" as="sourcePoint" />
            <mxPoint x="131" y="477.5" as="targetPoint" />
          </mxGeometry>
        </mxCell>
        <mxCell id="cus_bGk6iszRSvrOZf_j-118" value="Conf 事件" style="text;html=1;strokeColor=none;fillColor=none;align=center;verticalAlign=middle;whiteSpace=wrap;rounded=0;" vertex="1" parent="1">
          <mxGeometry x="51" y="440.5" width="60" height="30" as="geometry" />
        </mxCell>
        <mxCell id="cus_bGk6iszRSvrOZf_j-164" style="rounded=0;orthogonalLoop=1;jettySize=auto;html=1;exitX=1;exitY=0.25;exitDx=0;exitDy=0;entryX=0;entryY=0.5;entryDx=0;entryDy=0;strokeWidth=2;fillColor=#f5f5f5;strokeColor=#666666;" edge="1" parent="1" source="cus_bGk6iszRSvrOZf_j-122" target="cus_bGk6iszRSvrOZf_j-143">
          <mxGeometry relative="1" as="geometry" />
        </mxCell>
        <mxCell id="cus_bGk6iszRSvrOZf_j-165" style="edgeStyle=orthogonalEdgeStyle;rounded=0;orthogonalLoop=1;jettySize=auto;html=1;exitX=1;exitY=0.5;exitDx=0;exitDy=0;entryX=0;entryY=0.5;entryDx=0;entryDy=0;strokeWidth=2;fillColor=#fff2cc;strokeColor=#d6b656;" edge="1" parent="1" source="cus_bGk6iszRSvrOZf_j-122" target="cus_bGk6iszRSvrOZf_j-151">
          <mxGeometry relative="1" as="geometry" />
        </mxCell>
        <mxCell id="cus_bGk6iszRSvrOZf_j-166" style="rounded=0;orthogonalLoop=1;jettySize=auto;html=1;exitX=1;exitY=0.75;exitDx=0;exitDy=0;entryX=0;entryY=0.5;entryDx=0;entryDy=0;strokeWidth=2;fillColor=#f8cecc;strokeColor=#b85450;" edge="1" parent="1" source="cus_bGk6iszRSvrOZf_j-122" target="cus_bGk6iszRSvrOZf_j-152">
          <mxGeometry relative="1" as="geometry" />
        </mxCell>
        <mxCell id="cus_bGk6iszRSvrOZf_j-122" value="Ingress &lt;br&gt;Gateway" style="rounded=1;whiteSpace=wrap;html=1;fillColor=#e1d5e7;strokeColor=#9673a6;" vertex="1" parent="1">
          <mxGeometry x="160" y="870" width="129" height="60" as="geometry" />
        </mxCell>
        <mxCell id="cus_bGk6iszRSvrOZf_j-123" value="" style="shape=flexArrow;endArrow=classic;html=1;rounded=0;" edge="1" parent="1">
          <mxGeometry width="50" height="50" relative="1" as="geometry">
            <mxPoint x="80" y="899.5" as="sourcePoint" />
            <mxPoint x="140" y="899.5" as="targetPoint" />
          </mxGeometry>
        </mxCell>
        <mxCell id="cus_bGk6iszRSvrOZf_j-139" style="edgeStyle=orthogonalEdgeStyle;rounded=0;orthogonalLoop=1;jettySize=auto;html=1;exitX=1;exitY=0.25;exitDx=0;exitDy=0;entryX=0;entryY=0.25;entryDx=0;entryDy=0;fillColor=#f5f5f5;strokeColor=#666666;" edge="1" parent="1" source="cus_bGk6iszRSvrOZf_j-127" target="cus_bGk6iszRSvrOZf_j-134">
          <mxGeometry relative="1" as="geometry" />
        </mxCell>
        <mxCell id="cus_bGk6iszRSvrOZf_j-140" style="edgeStyle=orthogonalEdgeStyle;rounded=0;orthogonalLoop=1;jettySize=auto;html=1;exitX=1;exitY=0.5;exitDx=0;exitDy=0;entryX=0;entryY=0.5;entryDx=0;entryDy=0;fillColor=#f5f5f5;strokeColor=#666666;" edge="1" parent="1" source="cus_bGk6iszRSvrOZf_j-127" target="cus_bGk6iszRSvrOZf_j-136">
          <mxGeometry relative="1" as="geometry" />
        </mxCell>
        <mxCell id="cus_bGk6iszRSvrOZf_j-127" value="Service A&lt;br&gt;v1" style="rounded=0;whiteSpace=wrap;html=1;shadow=0;" vertex="1" parent="1">
          <mxGeometry x="400" y="760" width="90" height="40" as="geometry" />
        </mxCell>
        <mxCell id="cus_bGk6iszRSvrOZf_j-128" value="" style="rounded=0;whiteSpace=wrap;html=1;fillColor=#e1d5e7;strokeColor=#9673a6;shadow=0;" vertex="1" parent="1">
          <mxGeometry x="380" y="760" width="20" height="40" as="geometry" />
        </mxCell>
        <mxCell id="cus_bGk6iszRSvrOZf_j-146" style="edgeStyle=orthogonalEdgeStyle;rounded=0;orthogonalLoop=1;jettySize=auto;html=1;exitX=1;exitY=0.75;exitDx=0;exitDy=0;entryX=0;entryY=0.75;entryDx=0;entryDy=0;fillColor=#fff2cc;strokeColor=#d6b656;" edge="1" parent="1" source="cus_bGk6iszRSvrOZf_j-129" target="cus_bGk6iszRSvrOZf_j-145">
          <mxGeometry relative="1" as="geometry" />
        </mxCell>
        <mxCell id="cus_bGk6iszRSvrOZf_j-147" style="rounded=0;orthogonalLoop=1;jettySize=auto;html=1;exitX=1;exitY=0.25;exitDx=0;exitDy=0;entryX=0;entryY=0.75;entryDx=0;entryDy=0;fillColor=#fff2cc;strokeColor=#d6b656;" edge="1" parent="1" source="cus_bGk6iszRSvrOZf_j-129" target="cus_bGk6iszRSvrOZf_j-134">
          <mxGeometry relative="1" as="geometry" />
        </mxCell>
        <mxCell id="cus_bGk6iszRSvrOZf_j-129" value="Service A&lt;br&gt;v2" style="rounded=0;whiteSpace=wrap;html=1;shadow=0;" vertex="1" parent="1">
          <mxGeometry x="400" y="880" width="90" height="40" as="geometry" />
        </mxCell>
        <mxCell id="cus_bGk6iszRSvrOZf_j-130" value="" style="rounded=0;whiteSpace=wrap;html=1;fillColor=#e1d5e7;strokeColor=#9673a6;shadow=0;" vertex="1" parent="1">
          <mxGeometry x="380" y="880" width="20" height="40" as="geometry" />
        </mxCell>
        <mxCell id="cus_bGk6iszRSvrOZf_j-142" style="edgeStyle=orthogonalEdgeStyle;rounded=0;orthogonalLoop=1;jettySize=auto;html=1;exitX=1;exitY=0.5;exitDx=0;exitDy=0;entryX=0;entryY=0.5;entryDx=0;entryDy=0;fillColor=#f5f5f5;strokeColor=#666666;" edge="1" parent="1" source="cus_bGk6iszRSvrOZf_j-133" target="cus_bGk6iszRSvrOZf_j-138">
          <mxGeometry relative="1" as="geometry" />
        </mxCell>
        <mxCell id="cus_bGk6iszRSvrOZf_j-133" value="Service B&lt;br&gt;v1" style="rounded=0;whiteSpace=wrap;html=1;shadow=0;" vertex="1" parent="1">
          <mxGeometry x="556.5" y="760" width="90" height="40" as="geometry" />
        </mxCell>
        <mxCell id="cus_bGk6iszRSvrOZf_j-134" value="" style="rounded=0;whiteSpace=wrap;html=1;fillColor=#e1d5e7;strokeColor=#9673a6;shadow=0;" vertex="1" parent="1">
          <mxGeometry x="536.5" y="760" width="20" height="40" as="geometry" />
        </mxCell>
        <mxCell id="cus_bGk6iszRSvrOZf_j-135" value="Service C&lt;br&gt;v1" style="rounded=0;whiteSpace=wrap;html=1;shadow=0;" vertex="1" parent="1">
          <mxGeometry x="556.5" y="810" width="90" height="40" as="geometry" />
        </mxCell>
        <mxCell id="cus_bGk6iszRSvrOZf_j-136" value="" style="rounded=0;whiteSpace=wrap;html=1;fillColor=#e1d5e7;strokeColor=#9673a6;shadow=0;" vertex="1" parent="1">
          <mxGeometry x="536.5" y="810" width="20" height="40" as="geometry" />
        </mxCell>
        <mxCell id="cus_bGk6iszRSvrOZf_j-137" value="Service D&lt;br&gt;v1" style="rounded=0;whiteSpace=wrap;html=1;shadow=0;" vertex="1" parent="1">
          <mxGeometry x="723" y="760" width="90" height="40" as="geometry" />
        </mxCell>
        <mxCell id="cus_bGk6iszRSvrOZf_j-138" value="" style="rounded=0;whiteSpace=wrap;html=1;fillColor=#e1d5e7;strokeColor=#9673a6;shadow=0;" vertex="1" parent="1">
          <mxGeometry x="703" y="760" width="20" height="40" as="geometry" />
        </mxCell>
        <mxCell id="cus_bGk6iszRSvrOZf_j-150" style="rounded=0;orthogonalLoop=1;jettySize=auto;html=1;exitX=1;exitY=0.75;exitDx=0;exitDy=0;entryX=0;entryY=0.5;entryDx=0;entryDy=0;fillColor=#fff2cc;strokeColor=#d6b656;" edge="1" parent="1" source="cus_bGk6iszRSvrOZf_j-133" target="cus_bGk6iszRSvrOZf_j-149">
          <mxGeometry relative="1" as="geometry" />
        </mxCell>
        <mxCell id="cus_bGk6iszRSvrOZf_j-144" value="Service C&lt;br&gt;v2" style="rounded=0;whiteSpace=wrap;html=1;shadow=0;" vertex="1" parent="1">
          <mxGeometry x="556.5" y="880" width="90" height="40" as="geometry" />
        </mxCell>
        <mxCell id="cus_bGk6iszRSvrOZf_j-145" value="" style="rounded=0;whiteSpace=wrap;html=1;fillColor=#e1d5e7;strokeColor=#9673a6;shadow=0;" vertex="1" parent="1">
          <mxGeometry x="536.5" y="880" width="20" height="40" as="geometry" />
        </mxCell>
        <mxCell id="cus_bGk6iszRSvrOZf_j-148" value="Service D&lt;br&gt;v2" style="rounded=0;whiteSpace=wrap;html=1;shadow=0;" vertex="1" parent="1">
          <mxGeometry x="723" y="879" width="90" height="40" as="geometry" />
        </mxCell>
        <mxCell id="cus_bGk6iszRSvrOZf_j-149" value="" style="rounded=0;whiteSpace=wrap;html=1;fillColor=#e1d5e7;strokeColor=#9673a6;shadow=0;" vertex="1" parent="1">
          <mxGeometry x="703" y="879" width="20" height="40" as="geometry" />
        </mxCell>
        <mxCell id="cus_bGk6iszRSvrOZf_j-152" value="" style="rounded=0;whiteSpace=wrap;html=1;fillColor=#f8cecc;strokeColor=#b85450;" vertex="1" parent="1">
          <mxGeometry x="360" y="941" width="530" height="110" as="geometry" />
        </mxCell>
        <mxCell id="cus_bGk6iszRSvrOZf_j-153" style="edgeStyle=orthogonalEdgeStyle;rounded=0;orthogonalLoop=1;jettySize=auto;html=1;exitX=1;exitY=0.25;exitDx=0;exitDy=0;entryX=0;entryY=0.25;entryDx=0;entryDy=0;fillColor=#f8cecc;strokeColor=#b85450;" edge="1" parent="1" source="cus_bGk6iszRSvrOZf_j-155" target="cus_bGk6iszRSvrOZf_j-159">
          <mxGeometry relative="1" as="geometry" />
        </mxCell>
        <mxCell id="cus_bGk6iszRSvrOZf_j-154" style="edgeStyle=orthogonalEdgeStyle;rounded=0;orthogonalLoop=1;jettySize=auto;html=1;exitX=1;exitY=0.5;exitDx=0;exitDy=0;entryX=0;entryY=0.5;entryDx=0;entryDy=0;fillColor=#f8cecc;strokeColor=#b85450;" edge="1" parent="1" source="cus_bGk6iszRSvrOZf_j-155" target="cus_bGk6iszRSvrOZf_j-161">
          <mxGeometry relative="1" as="geometry" />
        </mxCell>
        <mxCell id="cus_bGk6iszRSvrOZf_j-155" value="Service A&lt;br&gt;v3" style="rounded=0;whiteSpace=wrap;html=1;shadow=0;" vertex="1" parent="1">
          <mxGeometry x="400" y="951" width="90" height="40" as="geometry" />
        </mxCell>
        <mxCell id="cus_bGk6iszRSvrOZf_j-156" value="" style="rounded=0;whiteSpace=wrap;html=1;fillColor=#e1d5e7;strokeColor=#9673a6;shadow=0;" vertex="1" parent="1">
          <mxGeometry x="380" y="951" width="20" height="40" as="geometry" />
        </mxCell>
        <mxCell id="cus_bGk6iszRSvrOZf_j-157" style="edgeStyle=orthogonalEdgeStyle;rounded=0;orthogonalLoop=1;jettySize=auto;html=1;exitX=1;exitY=0.5;exitDx=0;exitDy=0;entryX=0;entryY=0.5;entryDx=0;entryDy=0;fillColor=#f8cecc;strokeColor=#b85450;" edge="1" parent="1" source="cus_bGk6iszRSvrOZf_j-158" target="cus_bGk6iszRSvrOZf_j-163">
          <mxGeometry relative="1" as="geometry" />
        </mxCell>
        <mxCell id="cus_bGk6iszRSvrOZf_j-158" value="Service B&lt;br&gt;v3" style="rounded=0;whiteSpace=wrap;html=1;shadow=0;" vertex="1" parent="1">
          <mxGeometry x="556.5" y="951" width="90" height="40" as="geometry" />
        </mxCell>
        <mxCell id="cus_bGk6iszRSvrOZf_j-159" value="" style="rounded=0;whiteSpace=wrap;html=1;fillColor=#e1d5e7;strokeColor=#9673a6;shadow=0;" vertex="1" parent="1">
          <mxGeometry x="536.5" y="951" width="20" height="40" as="geometry" />
        </mxCell>
        <mxCell id="cus_bGk6iszRSvrOZf_j-160" value="Service C&lt;br&gt;v3" style="rounded=0;whiteSpace=wrap;html=1;shadow=0;" vertex="1" parent="1">
          <mxGeometry x="556.5" y="1001" width="90" height="40" as="geometry" />
        </mxCell>
        <mxCell id="cus_bGk6iszRSvrOZf_j-161" value="" style="rounded=0;whiteSpace=wrap;html=1;fillColor=#e1d5e7;strokeColor=#9673a6;shadow=0;" vertex="1" parent="1">
          <mxGeometry x="536.5" y="1001" width="20" height="40" as="geometry" />
        </mxCell>
        <mxCell id="cus_bGk6iszRSvrOZf_j-162" value="Service D&lt;br&gt;v3" style="rounded=0;whiteSpace=wrap;html=1;shadow=0;" vertex="1" parent="1">
          <mxGeometry x="723" y="951" width="90" height="40" as="geometry" />
        </mxCell>
        <mxCell id="cus_bGk6iszRSvrOZf_j-163" value="" style="rounded=0;whiteSpace=wrap;html=1;fillColor=#e1d5e7;strokeColor=#9673a6;shadow=0;" vertex="1" parent="1">
          <mxGeometry x="703" y="951" width="20" height="40" as="geometry" />
        </mxCell>
        <mxCell id="cus_bGk6iszRSvrOZf_j-167" value="BaseLine 泳道" style="text;html=1;strokeColor=none;fillColor=none;align=center;verticalAlign=middle;whiteSpace=wrap;rounded=0;" vertex="1" parent="1">
          <mxGeometry x="808" y="830" width="80" height="30" as="geometry" />
        </mxCell>
        <mxCell id="cus_bGk6iszRSvrOZf_j-168" value="Dev1 泳道" style="text;html=1;strokeColor=none;fillColor=none;align=center;verticalAlign=middle;whiteSpace=wrap;rounded=0;" vertex="1" parent="1">
          <mxGeometry x="810" y="911" width="80" height="30" as="geometry" />
        </mxCell>
        <mxCell id="cus_bGk6iszRSvrOZf_j-169" value="Dev2 泳道" style="text;html=1;strokeColor=none;fillColor=none;align=center;verticalAlign=middle;whiteSpace=wrap;rounded=0;" vertex="1" parent="1">
          <mxGeometry x="810" y="1021" width="80" height="30" as="geometry" />
        </mxCell>
        <mxCell id="cus_bGk6iszRSvrOZf_j-177" style="rounded=0;orthogonalLoop=1;jettySize=auto;html=1;exitX=1;exitY=0.25;exitDx=0;exitDy=0;entryX=0;entryY=0.5;entryDx=0;entryDy=0;strokeWidth=2;fillColor=#f5f5f5;strokeColor=#666666;" edge="1" parent="1" source="cus_bGk6iszRSvrOZf_j-170" target="cus_bGk6iszRSvrOZf_j-171">
          <mxGeometry relative="1" as="geometry" />
        </mxCell>
        <mxCell id="cus_bGk6iszRSvrOZf_j-178" style="rounded=0;orthogonalLoop=1;jettySize=auto;html=1;exitX=1;exitY=0.75;exitDx=0;exitDy=0;entryX=0;entryY=0.5;entryDx=0;entryDy=0;strokeWidth=2;fillColor=#fff2cc;strokeColor=#d6b656;" edge="1" parent="1" source="cus_bGk6iszRSvrOZf_j-170" target="cus_bGk6iszRSvrOZf_j-174">
          <mxGeometry relative="1" as="geometry" />
        </mxCell>
        <mxCell id="cus_bGk6iszRSvrOZf_j-170" value="Ingress &lt;br&gt;Gateway" style="rounded=1;whiteSpace=wrap;html=1;fillColor=#e1d5e7;strokeColor=#9673a6;" vertex="1" parent="1">
          <mxGeometry x="80" y="1250" width="129" height="60" as="geometry" />
        </mxCell>
        <mxCell id="cus_bGk6iszRSvrOZf_j-171" value="" style="rounded=0;whiteSpace=wrap;html=1;fillColor=#f5f5f5;strokeColor=#666666;fontColor=#333333;" vertex="1" parent="1">
          <mxGeometry x="333" y="1200" width="203.5" height="80" as="geometry" />
        </mxCell>
        <mxCell id="cus_bGk6iszRSvrOZf_j-172" value="Service A&lt;br&gt;v1" style="rounded=0;whiteSpace=wrap;html=1;shadow=0;" vertex="1" parent="1">
          <mxGeometry x="386.5" y="1219" width="90" height="40" as="geometry" />
        </mxCell>
        <mxCell id="cus_bGk6iszRSvrOZf_j-173" value="" style="rounded=0;whiteSpace=wrap;html=1;fillColor=#e1d5e7;strokeColor=#9673a6;shadow=0;" vertex="1" parent="1">
          <mxGeometry x="366.5" y="1219" width="20" height="40" as="geometry" />
        </mxCell>
        <mxCell id="cus_bGk6iszRSvrOZf_j-174" value="" style="rounded=0;whiteSpace=wrap;html=1;fillColor=#fff2cc;strokeColor=#d6b656;" vertex="1" parent="1">
          <mxGeometry x="333" y="1280" width="203.5" height="80" as="geometry" />
        </mxCell>
        <mxCell id="cus_bGk6iszRSvrOZf_j-175" value="Service A&lt;br&gt;v2" style="rounded=0;whiteSpace=wrap;html=1;shadow=0;" vertex="1" parent="1">
          <mxGeometry x="386.5" y="1299" width="90" height="40" as="geometry" />
        </mxCell>
        <mxCell id="cus_bGk6iszRSvrOZf_j-176" value="" style="rounded=0;whiteSpace=wrap;html=1;fillColor=#e1d5e7;strokeColor=#9673a6;shadow=0;" vertex="1" parent="1">
          <mxGeometry x="366.5" y="1299" width="20" height="40" as="geometry" />
        </mxCell>
        <mxCell id="cus_bGk6iszRSvrOZf_j-179" value="traffic-lane: baseline&lt;br&gt;traceid: 1" style="text;html=1;strokeColor=none;fillColor=none;align=center;verticalAlign=middle;whiteSpace=wrap;rounded=0;" vertex="1" parent="1">
          <mxGeometry x="193" y="1219" width="140" height="30" as="geometry" />
        </mxCell>
        <mxCell id="cus_bGk6iszRSvrOZf_j-180" value="traffic-lane: dev1&lt;br&gt;traceid: 1" style="text;html=1;strokeColor=none;fillColor=none;align=center;verticalAlign=middle;whiteSpace=wrap;rounded=0;" vertex="1" parent="1">
          <mxGeometry x="200" y="1320" width="140" height="30" as="geometry" />
        </mxCell>
        <mxCell id="cus_bGk6iszRSvrOZf_j-181" value="" style="rounded=0;whiteSpace=wrap;html=1;fillColor=#f5f5f5;strokeColor=#666666;fontColor=#333333;" vertex="1" parent="1">
          <mxGeometry x="220" y="1500" width="290" height="60" as="geometry" />
        </mxCell>
        <mxCell id="cus_bGk6iszRSvrOZf_j-182" value="Service A&lt;br&gt;v1" style="rounded=0;whiteSpace=wrap;html=1;shadow=0;" vertex="1" parent="1">
          <mxGeometry x="229" y="1510" width="90" height="40" as="geometry" />
        </mxCell>
        <mxCell id="cus_bGk6iszRSvrOZf_j-188" style="edgeStyle=orthogonalEdgeStyle;rounded=0;orthogonalLoop=1;jettySize=auto;html=1;exitX=1;exitY=0.5;exitDx=0;exitDy=0;entryX=0;entryY=0.5;entryDx=0;entryDy=0;startArrow=classic;startFill=1;" edge="1" parent="1" source="cus_bGk6iszRSvrOZf_j-183" target="cus_bGk6iszRSvrOZf_j-186">
          <mxGeometry relative="1" as="geometry" />
        </mxCell>
        <mxCell id="cus_bGk6iszRSvrOZf_j-183" value="" style="rounded=0;whiteSpace=wrap;html=1;fillColor=#e1d5e7;strokeColor=#9673a6;shadow=0;" vertex="1" parent="1">
          <mxGeometry x="319" y="1510" width="20" height="40" as="geometry" />
        </mxCell>
        <mxCell id="cus_bGk6iszRSvrOZf_j-185" value="Service B&lt;br&gt;v2" style="rounded=0;whiteSpace=wrap;html=1;shadow=0;" vertex="1" parent="1">
          <mxGeometry x="414" y="1510" width="90" height="40" as="geometry" />
        </mxCell>
        <mxCell id="cus_bGk6iszRSvrOZf_j-186" value="" style="rounded=0;whiteSpace=wrap;html=1;fillColor=#e1d5e7;strokeColor=#9673a6;shadow=0;" vertex="1" parent="1">
          <mxGeometry x="394" y="1510" width="20" height="40" as="geometry" />
        </mxCell>
        <mxCell id="cus_bGk6iszRSvrOZf_j-190" value="" style="rounded=0;whiteSpace=wrap;html=1;fillColor=#f5f5f5;fontColor=#333333;strokeColor=#666666;strokeWidth=0;" vertex="1" parent="1">
          <mxGeometry x="220" y="1690" width="170" height="190" as="geometry" />
        </mxCell>
        <mxCell id="cus_bGk6iszRSvrOZf_j-193" style="edgeStyle=orthogonalEdgeStyle;rounded=0;orthogonalLoop=1;jettySize=auto;html=1;exitX=0.75;exitY=1;exitDx=0;exitDy=0;entryX=0.75;entryY=0;entryDx=0;entryDy=0;dashed=1;" edge="1" parent="1" source="cus_bGk6iszRSvrOZf_j-189" target="cus_bGk6iszRSvrOZf_j-191">
          <mxGeometry relative="1" as="geometry" />
        </mxCell>
        <mxCell id="cus_bGk6iszRSvrOZf_j-189" value="Service A" style="rounded=0;whiteSpace=wrap;html=1;" vertex="1" parent="1">
          <mxGeometry x="246.5" y="1710" width="120" height="30" as="geometry" />
        </mxCell>
        <mxCell id="cus_bGk6iszRSvrOZf_j-192" style="edgeStyle=orthogonalEdgeStyle;rounded=0;orthogonalLoop=1;jettySize=auto;html=1;exitX=0.25;exitY=0;exitDx=0;exitDy=0;entryX=0.25;entryY=1;entryDx=0;entryDy=0;" edge="1" parent="1" source="cus_bGk6iszRSvrOZf_j-191" target="cus_bGk6iszRSvrOZf_j-189">
          <mxGeometry relative="1" as="geometry" />
        </mxCell>
        <mxCell id="cus_bGk6iszRSvrOZf_j-191" value="Envoy" style="rounded=0;whiteSpace=wrap;html=1;" vertex="1" parent="1">
          <mxGeometry x="246.5" y="1830" width="120" height="30" as="geometry" />
        </mxCell>
        <mxCell id="cus_bGk6iszRSvrOZf_j-194" value="" style="endArrow=classic;html=1;rounded=0;entryX=0;entryY=0.5;entryDx=0;entryDy=0;" edge="1" parent="1" target="cus_bGk6iszRSvrOZf_j-191">
          <mxGeometry width="50" height="50" relative="1" as="geometry">
            <mxPoint x="130" y="1845" as="sourcePoint" />
            <mxPoint x="150" y="1840" as="targetPoint" />
          </mxGeometry>
        </mxCell>
        <mxCell id="cus_bGk6iszRSvrOZf_j-195" style="edgeStyle=orthogonalEdgeStyle;rounded=0;orthogonalLoop=1;jettySize=auto;html=1;exitX=1;exitY=0.5;exitDx=0;exitDy=0;dashed=1;" edge="1" parent="1" source="cus_bGk6iszRSvrOZf_j-191">
          <mxGeometry relative="1" as="geometry">
            <mxPoint x="347" y="1750" as="sourcePoint" />
            <mxPoint x="470" y="1845" as="targetPoint" />
          </mxGeometry>
        </mxCell>
        <mxCell id="cus_bGk6iszRSvrOZf_j-196" style="edgeStyle=orthogonalEdgeStyle;rounded=0;orthogonalLoop=1;jettySize=auto;html=1;dashed=1;" edge="1" parent="1">
          <mxGeometry relative="1" as="geometry">
            <mxPoint x="416" y="1744.5" as="sourcePoint" />
            <mxPoint x="466" y="1744.5" as="targetPoint" />
          </mxGeometry>
        </mxCell>
        <mxCell id="cus_bGk6iszRSvrOZf_j-197" value="outbound" style="text;html=1;strokeColor=none;fillColor=none;align=center;verticalAlign=middle;whiteSpace=wrap;rounded=0;" vertex="1" parent="1">
          <mxGeometry x="476" y="1728" width="60" height="30" as="geometry" />
        </mxCell>
        <mxCell id="cus_bGk6iszRSvrOZf_j-198" value="" style="endArrow=classic;html=1;rounded=0;" edge="1" parent="1">
          <mxGeometry width="50" height="50" relative="1" as="geometry">
            <mxPoint x="414" y="1770" as="sourcePoint" />
            <mxPoint x="464" y="1770" as="targetPoint" />
          </mxGeometry>
        </mxCell>
        <mxCell id="cus_bGk6iszRSvrOZf_j-199" value="inbound" style="text;html=1;strokeColor=none;fillColor=none;align=center;verticalAlign=middle;whiteSpace=wrap;rounded=0;" vertex="1" parent="1">
          <mxGeometry x="476" y="1750" width="60" height="30" as="geometry" />
        </mxCell>
        <mxCell id="cus_bGk6iszRSvrOZf_j-204" value="" style="rounded=0;whiteSpace=wrap;html=1;" vertex="1" parent="1">
          <mxGeometry x="244.5" y="1908" width="123" height="60" as="geometry" />
        </mxCell>
        <mxCell id="cus_bGk6iszRSvrOZf_j-205" value="Key" style="rounded=0;whiteSpace=wrap;html=1;" vertex="1" parent="1">
          <mxGeometry x="244.5" y="1908" width="63" height="30" as="geometry" />
        </mxCell>
        <mxCell id="cus_bGk6iszRSvrOZf_j-206" value="Value" style="rounded=0;whiteSpace=wrap;html=1;" vertex="1" parent="1">
          <mxGeometry x="307.5" y="1908" width="60" height="30" as="geometry" />
        </mxCell>
        <mxCell id="cus_bGk6iszRSvrOZf_j-207" value="1" style="rounded=0;whiteSpace=wrap;html=1;" vertex="1" parent="1">
          <mxGeometry x="244.5" y="1938" width="63" height="30" as="geometry" />
        </mxCell>
        <mxCell id="cus_bGk6iszRSvrOZf_j-208" value="dev1" style="rounded=0;whiteSpace=wrap;html=1;" vertex="1" parent="1">
          <mxGeometry x="307.5" y="1938" width="60" height="30" as="geometry" />
        </mxCell>
        <mxCell id="cus_bGk6iszRSvrOZf_j-209" value="" style="endArrow=none;dashed=1;html=1;dashPattern=1 3;strokeWidth=2;rounded=0;entryX=0.5;entryY=1;entryDx=0;entryDy=0;exitX=1;exitY=0;exitDx=0;exitDy=0;" edge="1" parent="1" source="cus_bGk6iszRSvrOZf_j-205" target="cus_bGk6iszRSvrOZf_j-191">
          <mxGeometry width="50" height="50" relative="1" as="geometry">
            <mxPoint x="120" y="2000" as="sourcePoint" />
            <mxPoint x="170" y="1950" as="targetPoint" />
          </mxGeometry>
        </mxCell>
        <mxCell id="cus_bGk6iszRSvrOZf_j-210" value="traceid=1" style="text;html=1;strokeColor=none;fillColor=none;align=center;verticalAlign=middle;whiteSpace=wrap;rounded=0;" vertex="1" parent="1">
          <mxGeometry x="163" y="1850" width="60" height="30" as="geometry" />
        </mxCell>
        <mxCell id="cus_bGk6iszRSvrOZf_j-212" value="traffic-lane=dev1" style="text;html=1;strokeColor=none;fillColor=none;align=center;verticalAlign=middle;whiteSpace=wrap;rounded=0;" vertex="1" parent="1">
          <mxGeometry x="150" y="1870" width="100" height="30" as="geometry" />
        </mxCell>
        <mxCell id="cus_bGk6iszRSvrOZf_j-213" value="traceid=1" style="text;html=1;strokeColor=none;fillColor=none;align=center;verticalAlign=middle;whiteSpace=wrap;rounded=0;" vertex="1" parent="1">
          <mxGeometry x="393" y="1850" width="60" height="30" as="geometry" />
        </mxCell>
        <mxCell id="cus_bGk6iszRSvrOZf_j-214" value="traffic-lane=dev1" style="text;html=1;strokeColor=none;fillColor=none;align=center;verticalAlign=middle;whiteSpace=wrap;rounded=0;" vertex="1" parent="1">
          <mxGeometry x="380" y="1870" width="100" height="30" as="geometry" />
        </mxCell>
        <mxCell id="cus_bGk6iszRSvrOZf_j-215" value="Ingress" style="rounded=0;whiteSpace=wrap;html=1;" vertex="1" parent="1">
          <mxGeometry x="128" y="2108" width="81" height="40" as="geometry" />
        </mxCell>
        <mxCell id="cus_bGk6iszRSvrOZf_j-216" value="" style="rounded=0;whiteSpace=wrap;html=1;" vertex="1" parent="1">
          <mxGeometry x="260" y="2188" width="250" height="170" as="geometry" />
        </mxCell>
        <mxCell id="cus_bGk6iszRSvrOZf_j-235" style="rounded=0;orthogonalLoop=1;jettySize=auto;html=1;exitX=0.75;exitY=0;exitDx=0;exitDy=0;strokeWidth=2;fillColor=#f8cecc;strokeColor=#b85450;edgeStyle=orthogonalEdgeStyle;curved=1;" edge="1" parent="1" source="cus_bGk6iszRSvrOZf_j-223">
          <mxGeometry relative="1" as="geometry">
            <mxPoint x="560" y="2118" as="targetPoint" />
            <Array as="points">
              <mxPoint x="448" y="2258" />
              <mxPoint x="451" y="2258" />
            </Array>
          </mxGeometry>
        </mxCell>
        <mxCell id="cus_bGk6iszRSvrOZf_j-223" value="Service A" style="rounded=0;whiteSpace=wrap;html=1;" vertex="1" parent="1">
          <mxGeometry x="260" y="2398" width="250" height="40" as="geometry" />
        </mxCell>
        <mxCell id="cus_bGk6iszRSvrOZf_j-222" style="edgeStyle=orthogonalEdgeStyle;rounded=0;orthogonalLoop=1;jettySize=auto;html=1;exitX=1;exitY=0.5;exitDx=0;exitDy=0;curved=1;fillColor=#dae8fc;strokeColor=#6c8ebf;strokeWidth=2;" edge="1" parent="1" source="cus_bGk6iszRSvrOZf_j-215">
          <mxGeometry relative="1" as="geometry">
            <mxPoint x="330" y="2398" as="targetPoint" />
          </mxGeometry>
        </mxCell>
        <mxCell id="cus_bGk6iszRSvrOZf_j-217" value="记录流量标记" style="rounded=0;whiteSpace=wrap;html=1;fillColor=#d5e8d4;strokeColor=#82b366;" vertex="1" parent="1">
          <mxGeometry x="278" y="2268" width="92" height="30" as="geometry" />
        </mxCell>
        <mxCell id="cus_bGk6iszRSvrOZf_j-225" value="" style="rounded=0;whiteSpace=wrap;html=1;strokeWidth=0;fillColor=#f5f5f5;fontColor=#333333;strokeColor=#666666;" vertex="1" parent="1">
          <mxGeometry x="593" y="2168" width="283" height="290" as="geometry" />
        </mxCell>
        <mxCell id="cus_bGk6iszRSvrOZf_j-226" value="" style="rounded=0;whiteSpace=wrap;html=1;" vertex="1" parent="1">
          <mxGeometry x="609.5" y="2188" width="250" height="170" as="geometry" />
        </mxCell>
        <mxCell id="cus_bGk6iszRSvrOZf_j-227" value="Service B" style="rounded=0;whiteSpace=wrap;html=1;" vertex="1" parent="1">
          <mxGeometry x="609.5" y="2398" width="250" height="40" as="geometry" />
        </mxCell>
        <mxCell id="cus_bGk6iszRSvrOZf_j-218" value="解码" style="rounded=0;whiteSpace=wrap;html=1;fillColor=#d5e8d4;strokeColor=#82b366;" vertex="1" parent="1">
          <mxGeometry x="399" y="2318" width="92" height="30" as="geometry" />
        </mxCell>
        <mxCell id="cus_bGk6iszRSvrOZf_j-219" value="还原流量标记" style="rounded=0;whiteSpace=wrap;html=1;fillColor=#d5e8d4;strokeColor=#82b366;" vertex="1" parent="1">
          <mxGeometry x="399" y="2278" width="92" height="30" as="geometry" />
        </mxCell>
        <mxCell id="cus_bGk6iszRSvrOZf_j-220" value="路由" style="rounded=0;whiteSpace=wrap;html=1;fillColor=#d5e8d4;strokeColor=#82b366;" vertex="1" parent="1">
          <mxGeometry x="398" y="2238" width="92" height="30" as="geometry" />
        </mxCell>
        <mxCell id="cus_bGk6iszRSvrOZf_j-221" value="编码" style="rounded=0;whiteSpace=wrap;html=1;fillColor=#d5e8d4;strokeColor=#82b366;" vertex="1" parent="1">
          <mxGeometry x="398" y="2198" width="92" height="30" as="geometry" />
        </mxCell>
        <mxCell id="cus_bGk6iszRSvrOZf_j-238" value="" style="endArrow=classic;html=1;rounded=0;entryX=0.25;entryY=0;entryDx=0;entryDy=0;edgeStyle=orthogonalEdgeStyle;curved=1;strokeWidth=2;fillColor=#dae8fc;strokeColor=#6c8ebf;" edge="1" parent="1" target="cus_bGk6iszRSvrOZf_j-227">
          <mxGeometry width="50" height="50" relative="1" as="geometry">
            <mxPoint x="560" y="2118" as="sourcePoint" />
            <mxPoint x="680" y="2098" as="targetPoint" />
            <Array as="points">
              <mxPoint x="560" y="2119" />
              <mxPoint x="671" y="2119" />
            </Array>
          </mxGeometry>
        </mxCell>
        <mxCell id="cus_bGk6iszRSvrOZf_j-232" value="记录流量标记" style="rounded=0;whiteSpace=wrap;html=1;fillColor=#d5e8d4;strokeColor=#82b366;" vertex="1" parent="1">
          <mxGeometry x="627" y="2268" width="92" height="30" as="geometry" />
        </mxCell>
        <mxCell id="cus_bGk6iszRSvrOZf_j-239" style="rounded=0;orthogonalLoop=1;jettySize=auto;html=1;exitX=0.75;exitY=0;exitDx=0;exitDy=0;strokeWidth=2;fillColor=#f8cecc;strokeColor=#b85450;edgeStyle=orthogonalEdgeStyle;curved=1;" edge="1" parent="1">
          <mxGeometry relative="1" as="geometry">
            <mxPoint x="904" y="2118" as="targetPoint" />
            <mxPoint x="792" y="2398" as="sourcePoint" />
            <Array as="points">
              <mxPoint x="792" y="2258" />
              <mxPoint x="795" y="2258" />
            </Array>
          </mxGeometry>
        </mxCell>
        <mxCell id="cus_bGk6iszRSvrOZf_j-228" value="解码" style="rounded=0;whiteSpace=wrap;html=1;fillColor=#d5e8d4;strokeColor=#82b366;" vertex="1" parent="1">
          <mxGeometry x="748" y="2318" width="92" height="30" as="geometry" />
        </mxCell>
        <mxCell id="cus_bGk6iszRSvrOZf_j-229" value="还原流量标记" style="rounded=0;whiteSpace=wrap;html=1;fillColor=#d5e8d4;strokeColor=#82b366;" vertex="1" parent="1">
          <mxGeometry x="748" y="2278" width="92" height="30" as="geometry" />
        </mxCell>
        <mxCell id="cus_bGk6iszRSvrOZf_j-230" value="路由" style="rounded=0;whiteSpace=wrap;html=1;fillColor=#d5e8d4;strokeColor=#82b366;" vertex="1" parent="1">
          <mxGeometry x="747" y="2238" width="92" height="30" as="geometry" />
        </mxCell>
        <mxCell id="cus_bGk6iszRSvrOZf_j-231" value="编码" style="rounded=0;whiteSpace=wrap;html=1;fillColor=#d5e8d4;strokeColor=#82b366;" vertex="1" parent="1">
          <mxGeometry x="747" y="2198" width="92" height="30" as="geometry" />
        </mxCell>
        <mxCell id="cus_bGk6iszRSvrOZf_j-240" value="" style="endArrow=classic;html=1;rounded=0;strokeWidth=2;fillColor=#dae8fc;strokeColor=#6c8ebf;" edge="1" parent="1">
          <mxGeometry width="50" height="50" relative="1" as="geometry">
            <mxPoint x="150" y="2318" as="sourcePoint" />
            <mxPoint x="200" y="2318" as="targetPoint" />
          </mxGeometry>
        </mxCell>
        <mxCell id="cus_bGk6iszRSvrOZf_j-241" value="" style="endArrow=classic;html=1;rounded=0;strokeWidth=2;fillColor=#f8cecc;strokeColor=#b85450;" edge="1" parent="1">
          <mxGeometry width="50" height="50" relative="1" as="geometry">
            <mxPoint x="150" y="2368" as="sourcePoint" />
            <mxPoint x="200" y="2368" as="targetPoint" />
          </mxGeometry>
        </mxCell>
        <mxCell id="cus_bGk6iszRSvrOZf_j-242" value="outbound" style="text;html=1;strokeColor=none;fillColor=none;align=center;verticalAlign=middle;whiteSpace=wrap;rounded=0;" vertex="1" parent="1">
          <mxGeometry x="138.5" y="2338" width="60" height="30" as="geometry" />
        </mxCell>
        <mxCell id="cus_bGk6iszRSvrOZf_j-243" value="inbound" style="text;html=1;strokeColor=none;fillColor=none;align=center;verticalAlign=middle;whiteSpace=wrap;rounded=0;" vertex="1" parent="1">
          <mxGeometry x="140" y="2288" width="60" height="30" as="geometry" />
        </mxCell>
        <mxCell id="cus_bGk6iszRSvrOZf_j-244" value="traceid&lt;br&gt;traffic-lane" style="shape=callout;whiteSpace=wrap;html=1;perimeter=calloutPerimeter;fillColor=#ffe6cc;strokeColor=#d79b00;" vertex="1" parent="1">
          <mxGeometry x="219" y="2060" width="100" height="70" as="geometry" />
        </mxCell>
        <mxCell id="cus_bGk6iszRSvrOZf_j-247" value="traceid" style="shape=callout;whiteSpace=wrap;html=1;perimeter=calloutPerimeter;fillColor=#ffe6cc;strokeColor=#d79b00;position2=0;direction=east;" vertex="1" parent="1">
          <mxGeometry x="486.5" y="2340" width="70" height="55" as="geometry" />
        </mxCell>
        <mxCell id="cus_bGk6iszRSvrOZf_j-248" value="traceid&lt;br&gt;traffic-lane" style="shape=callout;whiteSpace=wrap;html=1;perimeter=calloutPerimeter;fillColor=#ffe6cc;strokeColor=#d79b00;" vertex="1" parent="1">
          <mxGeometry x="480" y="2050" width="100" height="70" as="geometry" />
        </mxCell>
        <mxCell id="cus_bGk6iszRSvrOZf_j-249" value="&lt;b&gt;&lt;font style=&quot;font-size: 14px;&quot;&gt;1.&lt;/font&gt;&lt;/b&gt;" style="text;html=1;strokeColor=none;fillColor=none;align=center;verticalAlign=middle;whiteSpace=wrap;rounded=0;" vertex="1" parent="1">
          <mxGeometry x="177" y="2060" width="60" height="30" as="geometry" />
        </mxCell>
        <mxCell id="cus_bGk6iszRSvrOZf_j-250" value="&lt;b&gt;&lt;font style=&quot;font-size: 14px;&quot;&gt;2.&lt;/font&gt;&lt;/b&gt;" style="text;html=1;strokeColor=none;fillColor=none;align=center;verticalAlign=middle;whiteSpace=wrap;rounded=0;" vertex="1" parent="1">
          <mxGeometry x="450" y="2338" width="60" height="30" as="geometry" />
        </mxCell>
        <mxCell id="cus_bGk6iszRSvrOZf_j-251" value="&lt;b&gt;&lt;font style=&quot;font-size: 14px;&quot;&gt;3.&lt;/font&gt;&lt;/b&gt;" style="text;html=1;strokeColor=none;fillColor=none;align=center;verticalAlign=middle;whiteSpace=wrap;rounded=0;" vertex="1" parent="1">
          <mxGeometry x="440" y="2060" width="60" height="30" as="geometry" />
        </mxCell>
      </root>
    </mxGraphModel>
  </diagram>
</mxfile>
